<svg width="91" height="81" viewBox="0 0 91 81" fill="none" xmlns="http://www.w3.org/2000/svg">
<path d="M45.422 80.5207C42.1185 77.9055 38.5398 75.8753 34.6859 74.4301C30.8319 72.9848 26.8402 72.2622 22.711 72.2622C19.8205 72.2622 16.9816 72.6407 14.1944 73.3978C11.4071 74.1548 8.74029 75.2215 6.1939 76.5979C4.74866 77.355 3.35503 77.3206 2.01302 76.4947C0.671006 75.6689 0 74.4645 0 72.8816V23.1239C0 22.3669 0.189258 21.6443 0.567775 20.956C0.946291 20.2678 1.51407 19.7517 2.2711 19.4076C5.43687 17.7559 8.74029 16.5171 12.1813 15.6912C15.6224 14.8654 19.1323 14.4524 22.711 14.4524C26.7026 14.4524 30.6082 14.9686 34.4278 16.0009C38.2474 17.0332 41.9121 18.5817 45.422 20.6463V70.6105C48.9318 68.4082 52.6138 66.7565 56.4678 65.6554C60.3217 64.5542 64.2101 64.0037 68.1329 64.0037C70.6105 64.0037 73.0365 64.2101 75.4108 64.6231C77.7851 65.036 80.1766 65.6554 82.5854 66.4812V16.93C83.6177 17.2741 84.6328 17.6354 85.6307 18.0139C86.6286 18.3925 87.6093 18.857 88.5728 19.4076C89.3299 19.7517 89.8976 20.2678 90.2762 20.956C90.6547 21.6443 90.8439 22.3669 90.8439 23.1239V72.8816C90.8439 74.4645 90.1729 75.6689 88.8309 76.4947C87.4889 77.3206 86.0953 77.355 84.65 76.5979C82.1036 75.2215 79.4368 74.1548 76.6496 73.3978C73.8623 72.6407 71.0234 72.2622 68.1329 72.2622C64.0037 72.2622 60.012 72.9848 56.1581 74.4301C52.3041 75.8753 48.7254 77.9055 45.422 80.5207ZM53.6805 59.8744V20.6463L74.3268 0V41.2927L53.6805 59.8744ZM37.1634 66.5845V25.7047C34.8923 24.7412 32.5352 24.0014 30.092 23.4852C27.6489 22.9691 25.1885 22.711 22.711 22.711C20.1646 22.711 17.687 22.9519 15.2783 23.4336C12.8696 23.9154 10.5296 24.638 8.25854 25.6015V66.5845C10.6673 65.6898 13.0588 65.036 15.4331 64.6231C17.8075 64.2101 20.2334 64.0037 22.711 64.0037C25.1885 64.0037 27.6145 64.2101 29.9888 64.6231C32.3631 65.036 34.7547 65.6898 37.1634 66.5845Z" fill="#FFB922"/>
</svg>
